<?xml version="1.0" standalone="no"?>
<!DOCTYPE svg PUBLIC "-//W3C//DTD SVG 20010904//EN"
 "http://www.w3.org/TR/2001/REC-SVG-20010904/DTD/svg10.dtd">
<svg version="1.0" xmlns="http://www.w3.org/2000/svg"
 width="350.000000pt" height="353.000000pt" viewBox="0 0 350.000000 353.000000"
 preserveAspectRatio="xMidYMid meet">

<g transform="translate(0.000000,353.000000) scale(0.100000,-0.100000)"
fill="#000000" stroke="none">
<path d="M0 1765 l0 -1765 1750 0 1750 0 0 1042 c0 1037 0 1041 -20 1023 -19
-17 -20 -17 -29 6 -5 13 -5 31 -1 39 15 31 20 87 11 135 -6 31 -6 56 0 67 11
21 -5 58 -25 58 -14 0 -20 -17 -35 -95 l-8 -40 -18 43 c-12 27 -23 41 -32 38
-7 -3 -13 0 -13 8 0 7 10 12 23 12 18 -1 22 4 22 29 0 25 -4 30 -22 28 -14 -2
-27 5 -33 17 -21 39 -33 22 -26 -37 12 -105 5 -172 -21 -191 -15 -11 -19 -9
-26 10 -4 13 -11 51 -14 86 -5 55 -3 65 16 86 19 20 20 27 10 50 -22 47 -98
27 -99 -26 0 -22 -35 -42 -77 -43 -18 -1 -38 -7 -46 -13 -13 -11 -24 -70 -33
-177 -2 -22 -8 -69 -13 -105 -13 -85 -6 -309 14 -424 19 -115 61 -247 92 -292
l23 -35 -22 3 c-28 4 -66 100 -102 259 -38 172 -47 295 -35 508 6 101 8 190 5
198 -3 8 1 24 9 36 29 45 32 157 3 157 -6 0 -17 8 -24 18 -22 30 -35 0 -37
-91 -1 -64 1 -87 11 -87 6 0 12 -4 12 -10 0 -5 -5 -10 -11 -10 -7 0 -9 -9 -5
-24 3 -14 1 -28 -7 -34 -9 -8 -12 -4 -13 16 0 15 -2 81 -4 147 -3 143 -16 176
-64 171 -40 -4 -65 -52 -78 -150 -8 -59 -7 -84 6 -126 9 -29 13 -56 10 -61 -2
-4 2 -51 11 -103 16 -105 20 -225 5 -191 -5 11 -9 40 -9 65 -1 25 -11 92 -22
150 -27 131 -29 277 -5 339 22 60 21 91 -3 91 -22 0 -41 22 -24 27 6 2 19 11
29 19 18 14 17 15 -11 9 -16 -3 -46 -8 -65 -10 -68 -8 -110 -17 -110 -24 0 -4
-18 -16 -40 -27 -24 -11 -40 -26 -40 -36 0 -20 -15 -24 -25 -7 -4 6 3 20 15
31 l22 21 -42 14 c-37 13 -46 13 -75 -1 -18 -9 -43 -16 -54 -16 -12 0 -35 -10
-51 -22 -30 -22 -51 -19 -33 4 13 16 -2 62 -17 53 -5 -3 -10 -13 -10 -20 0 -8
-12 -18 -26 -21 -19 -5 -24 -12 -21 -25 3 -11 1 -19 -4 -19 -5 0 -9 6 -9 14 0
8 -9 18 -20 21 -11 3 -27 14 -36 23 -15 15 -16 14 -10 -6 9 -27 -5 -29 -21 -2
-8 12 -9 21 -3 25 6 4 9 19 8 33 -1 15 2 33 6 40 9 15 -55 45 -78 36 -13 -5
-16 2 -16 34 0 23 -4 43 -9 47 -6 3 -10 13 -10 23 -1 9 -3 33 -7 53 -5 31 -2
39 20 57 21 16 25 26 20 46 -5 23 -3 26 19 26 13 0 41 7 62 16 34 14 39 14 55
-1 17 -16 19 -15 30 4 6 12 20 21 30 21 24 0 25 -8 4 -32 -19 -20 -25 -86 -11
-105 7 -9 5 -13 -6 -13 -24 0 -42 -27 -28 -44 10 -11 9 -16 -4 -23 -13 -8 -14
-15 -6 -36 6 -15 18 -30 26 -33 8 -4 15 -12 15 -20 0 -8 7 -14 15 -14 8 0 15
5 15 10 0 6 18 10 39 10 34 0 43 5 58 30 15 25 22 30 43 25 14 -3 30 -12 35
-18 16 -20 75 -20 96 -1 11 10 19 12 19 6 0 -7 -4 -12 -10 -12 -5 0 -10 -11
-10 -25 0 -29 0 -29 51 -13 52 15 54 47 4 70 -19 8 -37 13 -40 10 -6 -6 -79
-32 -80 -29 -2 6 -24 65 -30 79 -6 15 -1 17 49 12 l56 -5 1 43 c1 24 3 50 4
58 1 8 3 24 4 35 0 12 13 25 30 33 25 11 34 10 65 -8 45 -25 46 -25 46 0 0 11
4 20 9 20 4 0 6 11 3 25 -3 20 0 25 15 25 21 0 73 -52 73 -73 0 -7 4 -17 9
-22 4 -6 11 -22 15 -36 6 -27 -12 -45 -41 -40 -15 2 -17 -25 -3 -34 6 -3 10
-2 10 3 0 11 49 10 67 -1 19 -12 26 13 9 32 -18 20 -21 41 -6 41 6 0 3 11 -6
26 -13 19 -14 28 -5 37 9 9 14 8 21 -3 8 -12 10 -12 10 4 0 23 27 45 56 46 25
0 48 -42 32 -58 -13 -13 -2 -33 15 -27 17 7 67 -28 81 -56 15 -30 36 -36 36
-10 0 12 -4 21 -9 21 -5 0 -9 24 -8 53 2 52 2 52 -30 55 -18 2 -33 -1 -33 -6
0 -6 -7 -12 -15 -16 -10 -4 -15 1 -15 14 0 13 7 20 18 20 11 0 29 9 42 20 13
11 30 20 38 20 9 0 12 6 8 16 -3 9 -6 24 -6 35 0 10 -6 19 -13 19 -43 0 -68
59 -38 89 26 26 56 27 78 1 21 -24 36 -25 53 -5 10 13 10 19 -5 35 -14 16 -26
19 -56 14 -34 -6 -42 -3 -69 26 -16 18 -30 36 -30 41 0 5 -3 9 -7 9 -15 0 -33
55 -33 102 l0 48 -1460 0 -1460 0 0 -1765z m2630 1655 c0 -25 -36 -71 -60 -77
-73 -20 -111 36 -74 110 35 68 40 70 90 22 24 -24 44 -49 44 -55z m-490 75
c10 -12 9 -16 -5 -21 -19 -8 -40 9 -31 25 10 15 21 14 36 -4z m290 -15 c0 -5
-7 -10 -15 -10 -8 0 -15 5 -15 10 0 6 7 10 15 10 8 0 15 -4 15 -10z m-262 -32
c16 -16 15 -28 -2 -28 -17 0 -38 24 -29 33 9 10 17 9 31 -5z m-78 -38 c0 -5
-4 -10 -9 -10 -6 0 -13 5 -16 10 -3 6 1 10 9 10 9 0 16 -4 16 -10z m662 -21
c22 -29 17 -65 -13 -98 -25 -27 -67 -27 -96 1 -30 28 -29 68 2 102 32 35 79
33 107 -5z m-534 -12 c13 -36 16 -64 6 -54 -4 3 -15 2 -25 -4 -15 -7 -21 -6
-25 6 -3 8 -14 15 -24 15 -10 0 -25 11 -34 25 -20 30 -20 39 -3 32 8 -3 19 -2
25 2 6 4 24 8 40 9 23 2 30 -3 40 -31z m115 -45 c21 -19 22 -42 1 -42 -14 0
-14 -3 -4 -15 16 -19 9 -28 -14 -19 -9 4 -15 13 -12 20 3 8 2 14 -3 14 -12 0
-34 47 -27 59 8 12 33 4 59 -17z m47 18 c0 -5 -9 -10 -20 -10 -11 0 -20 5 -20
10 0 6 9 10 20 10 11 0 20 -4 20 -10z m-1532 -58 c21 21 26 -20 6 -50 l-18
-27 -7 25 c-4 14 -7 18 -8 9 -1 -9 -8 -22 -16 -29 -12 -10 -18 -10 -31 1 -15
12 -16 11 -10 -9 6 -17 4 -21 -9 -16 -19 8 -38 41 -30 54 3 5 12 7 20 3 11 -3
13 -1 9 10 -6 17 12 32 21 17 11 -17 25 -11 25 12 0 20 1 20 18 5 14 -13 21
-14 30 -5z m1732 -7 c21 -25 -2 -39 -28 -17 -21 19 -20 32 3 32 7 0 18 -7 25
-15z m-1660 -32 c0 -10 -42 -53 -52 -53 -13 0 -9 22 9 42 16 18 43 25 43 11z
m1980 -14 c0 -5 -7 -9 -15 -9 -15 0 -20 12 -9 23 8 8 24 -1 24 -14z m-362 -33
c2 -10 -3 -16 -16 -16 -25 0 -46 25 -38 46 6 15 9 15 29 1 12 -8 23 -22 25
-31z m-1584 5 c8 -12 -13 -28 -47 -36 -35 -9 -35 6 1 27 31 20 39 21 46 9z
m1843 -17 c9 -23 -13 -40 -32 -24 -12 10 -13 16 -4 26 15 18 28 18 36 -2z m86
1 c-1 -5 -8 -14 -17 -20 -18 -11 -42 7 -31 25 8 13 51 9 48 -5z m-2034 -19 c9
-10 8 -16 -4 -26 -17 -14 -45 -7 -45 13 0 29 30 37 49 13z m2051 -26 c0 -5 -4
-10 -10 -10 -5 0 -10 5 -10 10 0 6 5 10 10 10 6 0 10 -4 10 -10z m-1950 -15
c0 -10 -10 -15 -29 -15 -16 0 -34 7 -41 15 -11 13 -7 15 29 15 30 0 41 -4 41
-15z m1730 0 c7 -8 18 -15 25 -15 7 0 15 -7 19 -15 3 -9 0 -15 -9 -15 -8 0
-15 4 -15 8 0 4 -14 12 -32 17 -17 6 -33 16 -36 23 -5 17 33 15 48 -3z m-1778
-36 c21 -15 26 -25 19 -32 -8 -8 -18 -4 -36 13 -43 40 -32 53 17 19z m2008 17
c0 -3 -4 -8 -10 -11 -5 -3 -10 -1 -10 4 0 6 5 11 10 11 6 0 10 -2 10 -4z
m-2380 -32 c12 -31 13 -54 2 -54 -12 0 -44 59 -37 70 11 17 25 11 35 -16z m66
12 c6 -16 -22 -76 -36 -76 -8 0 -5 42 6 78 5 16 23 15 30 -2z m2202 -13 c-2
-20 -9 -29 -25 -31 -28 -4 -31 24 -5 44 26 20 34 17 30 -13z m-1835 -10 c-5
-15 -3 -16 8 -5 18 17 29 15 29 -4 0 -11 5 -14 16 -10 13 5 15 2 11 -14 -3
-13 0 -20 9 -20 8 0 14 -7 14 -15 0 -10 -10 -15 -33 -15 -28 0 -36 6 -50 33
-10 21 -16 26 -16 14 -1 -23 -21 -12 -21 12 0 17 18 41 32 41 4 0 5 -8 1 -17z
m-478 -24 c31 -38 27 -46 -14 -24 -19 9 -31 23 -31 35 0 28 14 25 45 -11z
m165 21 c0 -13 -49 -64 -56 -57 -8 8 30 67 44 67 6 0 12 -5 12 -10z m1413 -16
c10 -10 -12 -44 -28 -44 -18 0 -19 5 -3 30 13 21 21 24 31 14z m63 -21 c-10
-10 -19 5 -10 18 6 11 8 11 12 0 2 -7 1 -15 -2 -18z m-1658 -26 c23 -18 13
-29 -20 -22 -40 9 -42 10 -35 29 6 16 29 13 55 -7z m100 -31 c-2 -13 -10 -21
-23 -21 -23 0 -33 34 -14 45 20 13 40 -1 37 -24z m389 8 c8 -21 -13 -42 -28
-27 -13 13 -5 43 11 43 6 0 13 -7 17 -16z m1010 0 c5 -15 -28 -27 -40 -15 -5
5 -6 14 -2 21 8 13 37 9 42 -6z m-73 -10 c3 -8 -1 -22 -9 -30 -8 -9 -15 -21
-16 -27 0 -7 -5 2 -10 18 -5 17 -7 36 -4 43 6 17 32 15 39 -4z m-1430 -5 c14
-7 23 -17 19 -22 -4 -6 0 -8 10 -4 25 9 21 -9 -5 -27 -39 -27 -75 -17 -46 12
9 9 8 12 -4 12 -23 0 -34 20 -17 31 17 11 14 11 43 -2z m575 -2 c15 -19 3 -28
-25 -21 -13 4 -24 2 -24 -4 0 -5 9 -12 20 -15 11 -3 20 -13 20 -22 0 -17 -11
-14 -42 13 -10 8 -14 20 -10 26 3 6 7 14 8 19 1 4 2 9 3 12 2 11 39 4 50 -8z
m-509 -56 c-10 -20 -48 -51 -62 -51 -21 0 -4 27 30 47 46 27 45 27 32 4z m400
-16 c0 -24 -5 -35 -15 -35 -18 0 -20 41 -3 58 17 17 18 16 18 -23z m40 10 c10
-19 11 -28 2 -37 -8 -8 -14 -4 -22 16 -19 51 -4 66 20 21z m813 -41 c-3 -8
-12 -14 -19 -14 -20 0 -30 30 -13 40 17 11 40 -7 32 -26z m82 -70 c0 -22 -46
-47 -69 -38 -17 6 -21 41 -8 60 20 31 77 14 77 -22z m-1244 6 c5 0 9 8 9 17 0
9 3 14 6 10 4 -3 4 -13 1 -22 -10 -25 -7 -30 15 -27 16 3 11 -6 -22 -37 -24
-23 -44 -40 -45 -39 -1 2 3 32 9 68 6 36 12 57 14 48 2 -10 8 -18 13 -18z
m203 -4 c-4 -11 0 -13 17 -9 18 5 21 3 16 -10 -5 -13 -1 -17 15 -17 16 0 18
-3 9 -14 -8 -10 -9 -16 -1 -21 21 -13 9 -25 -26 -25 -30 0 -34 2 -25 14 10 11
8 16 -9 21 -14 4 -19 12 -15 22 4 13 3 14 -10 3 -18 -15 -21 1 -5 31 12 22 42
26 34 5z m-28 -105 c-10 -16 -36 -13 -43 5 -8 22 18 37 36 20 7 -8 10 -19 7
-25z m1075 18 c6 -13 8 -39 5 -64 -7 -42 -7 -42 -49 -42 -35 0 -48 5 -75 33
-27 28 -30 35 -17 40 9 4 19 4 22 0 3 -3 21 8 40 24 40 35 58 38 74 9z m-151
-5 c0 -8 -4 -12 -10 -9 -5 3 -10 10 -10 16 0 5 5 9 10 9 6 0 10 -7 10 -16z
m-851 -28 c8 -10 9 -16 2 -21 -13 -7 -51 12 -51 25 0 15 36 12 49 -4z m-19
-58 c0 -16 -29 -8 -40 11 -18 35 -11 45 15 21 14 -13 25 -27 25 -32z m1086 4
c-20 -20 -22 -1 -4 31 11 20 12 21 16 3 2 -10 -3 -26 -12 -34z m-1194 8 c-2
-17 -10 -30 -18 -30 -17 0 -17 2 -2 35 15 34 26 32 20 -5z m48 -6 c0 -24 -4
-34 -12 -32 -24 8 -22 68 2 68 5 0 10 -16 10 -36z m932 -8 c35 -44 42 -74 28
-125 -11 -43 -55 -81 -92 -81 -62 0 -125 68 -114 123 7 37 72 108 92 100 7 -2
21 0 31 6 25 15 25 15 55 -23z m296 11 c15 6 15 5 3 -11 -11 -13 -16 -14 -22
-4 -5 7 -8 20 -8 28 1 11 2 11 6 -2 3 -11 10 -15 21 -11z m552 -87 c0 -5 -4
-10 -9 -10 -6 0 -13 5 -16 10 -3 6 1 10 9 10 9 0 16 -4 16 -10z m-186 -29 c3
-5 -8 -14 -24 -20 -24 -8 -30 -7 -30 4 0 21 43 34 54 16z m-234 -30 c0 -5 -7
-12 -16 -15 -14 -5 -15 -4 -4 9 14 17 20 19 20 6z m136 -40 c-2 -25 0 -41 7
-44 8 -3 6 -11 -5 -24 -22 -24 -23 -53 -4 -53 11 0 12 -5 3 -24 -14 -29 -40
-38 -72 -26 -13 5 -25 6 -28 4 -3 -3 -10 3 -16 14 -6 11 -24 25 -41 30 -16 6
-30 15 -30 21 0 5 20 30 45 54 25 25 45 51 45 57 0 6 4 9 9 6 5 -3 22 1 37 9
47 24 55 20 50 -24z m-132 4 c-4 -8 -8 -15 -10 -15 -2 0 -4 7 -4 15 0 8 4 15
10 15 5 0 7 -7 4 -15z m226 11 c0 -3 -4 -8 -10 -11 -5 -3 -10 -1 -10 4 0 6 5
11 10 11 6 0 10 -2 10 -4z m-560 -51 c0 -18 -26 -42 -42 -37 -23 6 -23 18 0
31 18 11 42 14 42 6z m548 -49 c3 -12 -1 -17 -10 -14 -7 3 -15 13 -16 22 -3
12 1 17 10 14 7 -3 15 -13 16 -22z m-1887 -7 c6 -13 8 -45 5 -82 -5 -52 -4
-58 5 -37 7 14 21 44 31 67 20 43 52 63 70 45 30 -30 -61 -146 -121 -154 -57
-8 -158 72 -149 119 9 49 63 14 105 -68 26 -51 30 -41 8 21 -18 51 -19 82 -3
98 18 18 36 15 49 -9z m1489 11 c13 -9 13 -11 0 -20 -24 -16 -40 -12 -40 10 0
22 16 26 40 10z m-676 -65 c3 -8 1 -15 -4 -15 -6 0 -10 7 -10 15 0 8 2 15 4
15 2 0 6 -7 10 -15z m404 3 c-6 -17 -58 -30 -58 -14 0 19 11 26 38 26 14 0 22
-5 20 -12z m-1029 -42 c18 -22 2 -44 -42 -60 -52 -18 -117 -27 -117 -17 0 17
110 90 136 91 6 0 17 -6 23 -14z m1466 -5 c7 -12 -12 -24 -25 -16 -11 7 -4 25
10 25 5 0 11 -4 15 -9z m-1761 -43 c74 -43 73 -56 -4 -47 -63 7 -110 30 -110
53 0 37 43 35 114 -6z m1894 -10 c-6 -18 -28 -21 -28 -4 0 9 7 16 16 16 9 0
14 -5 12 -12z m848 -2 c5 -14 -30 -174 -41 -184 -13 -14 -13 10 0 62 8 31 15
75 15 96 0 39 15 54 26 26z m-1588 -22 c43 -30 8 -105 -35 -78 -22 14 -30 74
-11 85 18 12 20 11 46 -7z m-838 -19 c7 -8 9 -22 6 -31 -5 -14 -17 -16 -65
-11 -32 2 -71 12 -87 20 l-29 16 25 10 c40 16 136 13 150 -4z m-272 -11 c12
-4 22 -9 22 -13 0 -11 -92 -44 -127 -45 -46 -1 -68 28 -39 50 20 14 102 19
144 8z m632 -19 c0 -8 -4 -15 -10 -15 -5 0 -10 7 -10 15 0 8 5 15 10 15 6 0
10 -7 10 -15z m1146 -23 c-5 -14 -19 -21 -49 -25 -47 -7 -61 1 -51 27 5 13 14
17 33 13 14 -3 35 -1 46 3 25 9 28 6 21 -18z m-1750 -9 c-23 -44 -91 -105
-112 -101 -25 4 -29 40 -7 60 20 17 113 68 126 68 4 0 1 -12 -7 -27z m149 3
c63 -29 82 -50 65 -71 -7 -8 -20 -15 -30 -15 -19 0 -120 85 -120 101 0 15 33
10 85 -15z m-43 -65 c32 -51 35 -73 13 -91 -24 -20 -52 13 -66 76 -13 56 -29
63 -29 12 0 -48 -29 -100 -54 -96 -43 6 -22 90 40 151 26 26 28 27 47 10 11
-10 33 -38 49 -62z m2501 35 c-10 -13 -21 -22 -25 -20 -11 7 15 44 30 44 9 0
8 -7 -5 -24z m257 20 c0 -3 -4 -8 -10 -11 -5 -3 -10 -1 -10 4 0 6 5 11 10 11
6 0 10 -2 10 -4z m-620 -61 c-7 -8 -17 -15 -23 -15 -5 0 -2 9 8 20 21 23 35
19 15 -5z m565 5 c3 -5 1 -10 -4 -10 -6 0 -11 5 -11 10 0 6 2 10 4 10 3 0 8
-4 11 -10z m-2095 -65 c0 -8 -6 -15 -14 -15 -7 0 -19 -7 -26 -15 -13 -16 -40
-21 -40 -7 0 8 61 52 72 52 5 0 8 -7 8 -15z m871 -32 c21 -9 40 -23 42 -32 3
-9 8 -23 11 -32 5 -10 -3 -28 -19 -48 -34 -40 -95 -44 -119 -9 -24 34 -20 85
9 113 29 30 28 30 76 8z m779 -131 c0 -28 -3 -33 -10 -22 -13 20 -13 73 0 65
6 -3 10 -23 10 -43z m-348 -4 c-6 -7 -25 -21 -44 -31 -32 -18 -32 -18 7 17 37
33 60 42 37 14z m345 -105 c-3 -10 -5 -2 -5 17 0 19 2 27 5 18 2 -10 2 -26 0
-35z m-1357 27 c0 -5 -2 -10 -4 -10 -3 0 -8 5 -11 10 -3 6 -1 10 4 10 6 0 11
-4 11 -10z m1860 -30 c0 -5 -2 -10 -4 -10 -3 0 -8 5 -11 10 -3 6 -1 10 4 10 6
0 11 -4 11 -10z m-490 -70 c0 -5 -2 -10 -4 -10 -3 0 -8 5 -11 10 -3 6 -1 10 4
10 6 0 11 -4 11 -10z m-1370 -34 c0 -14 -29 -31 -38 -21 -6 6 18 35 29 35 5 0
9 -6 9 -14z m1367 -63 c-3 -10 -5 -2 -5 17 0 19 2 27 5 18 2 -10 2 -26 0 -35z
m-32 17 c3 -5 1 -10 -4 -10 -6 0 -11 5 -11 10 0 6 2 10 4 10 3 0 8 -4 11 -10z
m-2328 -30 c7 -14 13 -57 13 -96 0 -66 -2 -72 -22 -78 -39 -10 -160 64 -171
104 -3 11 1 27 9 35 24 24 61 -2 110 -75 49 -72 56 -71 19 5 -23 48 -33 114
-18 129 14 14 48 0 60 -24z m127 3 c8 -20 -26 -89 -64 -130 -16 -18 -32 -33
-35 -33 -10 0 -5 57 10 108 21 71 71 102 89 55z m811 -3 c3 -5 1 -10 -4 -10
-6 0 -11 5 -11 10 0 6 2 10 4 10 3 0 8 -4 11 -10z m115 -65 c0 -8 -7 -15 -15
-15 -8 0 -15 7 -15 15 0 8 7 15 15 15 8 0 15 -7 15 -15z m-831 -9 c27 -32 -45
-81 -146 -101 -39 -8 -40 -4 -9 30 70 75 129 102 155 71z m-334 -83 c93 -40
92 -53 -3 -53 -84 0 -122 16 -122 50 0 37 42 38 125 3z m373 -37 c7 -36 -18
-49 -84 -43 -34 3 -77 12 -95 20 l-34 14 50 16 c90 29 157 26 163 -7z m-280
-41 c2 -2 -30 -20 -71 -40 -78 -38 -113 -42 -131 -13 -16 26 11 48 70 57 42 6
122 4 132 -4z m181 -23 c61 -19 92 -52 71 -77 -16 -19 -33 -19 -71 1 -34 17
-109 82 -109 94 0 10 43 3 109 -18z m-189 -46 c-22 -47 -81 -106 -105 -106 -8
0 -19 9 -25 19 -8 16 -5 26 16 51 26 30 124 93 132 85 2 -2 -6 -24 -18 -49z
m113 -2 c55 -56 75 -97 57 -119 -32 -38 -69 -5 -98 88 l-16 52 -6 -67 c-9 -96
-46 -144 -81 -102 -11 13 -10 24 5 67 23 65 62 127 80 127 8 0 34 -21 59 -46z
m113 -449 c4 -8 -1 -34 -11 -58 l-16 -42 31 38 c31 36 70 50 70 24 0 -15 -37
-51 -60 -60 -8 -3 8 -3 36 0 35 4 54 2 59 -7 9 -15 -12 -29 -45 -30 -24 -1
-24 -2 8 -17 32 -17 41 -36 22 -48 -6 -4 -29 2 -52 14 l-41 20 32 -33 c17 -17
31 -37 31 -43 0 -25 -23 -24 -50 2 l-29 28 5 -35 c7 -40 -8 -57 -32 -37 -12
10 -15 24 -11 54 4 33 3 37 -6 21 -7 -10 -22 -31 -34 -45 -17 -21 -24 -24 -34
-13 -11 10 -10 18 5 45 11 17 13 26 5 20 -17 -17 -59 -17 -59 0 0 20 22 37 50
38 19 1 21 2 5 6 -11 2 -30 6 -42 9 -35 7 -31 44 4 44 l27 0 -22 16 c-25 18
-29 39 -7 48 9 3 31 -8 52 -27 37 -32 37 -32 15 -3 -25 33 -30 76 -7 76 15 0
32 -26 46 -69 6 -23 7 -21 8 15 1 53 33 86 47 49z m1366 -587 c-5 -7 -12 -24
-15 -38 l-4 -25 -2 26 c0 14 -6 30 -13 37 -9 9 -6 12 16 12 22 0 26 -3 18 -12z
m202 4 c3 -5 2 -19 -1 -32 -6 -22 -7 -23 -14 -4 -4 10 -8 25 -8 32 -1 14 15
16 23 4z m46 -24 c0 -25 -3 -29 -10 -18 -13 20 -13 50 0 50 6 0 10 -15 10 -32z
m306 23 c-14 -5 -16 -10 -8 -15 9 -5 9 -11 -2 -22 -21 -20 -23 -18 -18 16 3
23 9 30 26 29 20 0 20 -1 2 -8z m204 -17 c0 -21 18 -17 25 7 4 11 9 19 11 17
6 -7 -19 -68 -28 -68 -4 0 -8 1 -8 3 0 1 -4 17 -9 35 -6 20 -6 30 0 27 5 -4 9
-13 9 -21z m-453 -31 c-3 -10 -5 -2 -5 17 0 19 2 27 5 18 2 -10 2 -26 0 -35z
m629 18 c-1 -16 -4 -27 -8 -24 -11 6 -10 53 1 53 4 0 8 -13 7 -29z m232 9 c-7
-10 -14 -17 -17 -15 -4 4 18 35 25 35 2 0 -1 -9 -8 -20z m102 0 c7 11 10 8 10
-15 0 -21 -3 -26 -9 -16 -5 8 -14 10 -22 6 -8 -5 -11 -5 -7 0 4 4 3 17 -3 29
-10 21 -10 21 6 1 14 -17 17 -18 25 -5z m-1230 3 c0 -5 -5 -15 -10 -23 -8 -12
-10 -11 -10 8 0 12 5 22 10 22 6 0 10 -3 10 -7z m67 -30 c-3 -10 -5 -4 -5 12
0 17 2 24 5 18 2 -7 2 -21 0 -30z m53 26 c13 -9 12 -10 -2 -5 -14 4 -18 0 -18
-17 0 -17 -2 -19 -9 -8 -9 14 -4 41 8 41 3 0 13 -5 21 -11z m182 -14 c-2 -14
-6 -25 -8 -25 -2 0 -4 11 -4 25 0 14 4 25 9 25 4 0 6 -11 3 -25z m68 0 c0 -14
-2 -25 -4 -25 -2 0 -6 11 -8 25 -3 14 -1 25 3 25 5 0 9 -11 9 -25z m187 -12
c-3 -10 -5 -4 -5 12 0 17 2 24 5 18 2 -7 2 -21 0 -30z m53 10 c0 -20 -3 -24
-11 -16 -7 7 -9 19 -6 27 10 24 17 19 17 -11z m57 7 c2 -28 -9 -30 -31 -7 -16
17 -17 19 -3 14 9 -3 17 -2 17 3 0 19 16 10 17 -10z m138 10 c3 -5 1 -10 -4
-10 -6 0 -11 5 -11 10 0 6 2 10 4 10 3 0 8 -4 11 -10z m135 6 c0 -2 -8 -10
-17 -17 -16 -13 -17 -12 -4 4 13 16 21 21 21 13z m60 -3 c0 -5 -5 -15 -10 -23
-8 -12 -10 -11 -10 8 0 12 5 22 10 22 6 0 10 -3 10 -7z m47 0 c-4 -3 -2 -12 4
-20 15 -17 2 -17 -16 1 -14 14 -10 26 8 26 6 0 7 -3 4 -7z m220 -30 c-3 -10
-5 -4 -5 12 0 17 2 24 5 18 2 -7 2 -21 0 -30z m-1030 5 c-3 -8 -6 -5 -6 6 -1
11 2 17 5 13 3 -3 4 -12 1 -19z m540 0 c-3 -8 -6 -5 -6 6 -1 11 2 17 5 13 3
-3 4 -12 1 -19z m60 7 c0 -8 -4 -12 -9 -9 -4 3 -8 9 -8 15 0 5 4 9 8 9 5 0 9
-7 9 -15z m133 5 c0 -5 -2 -10 -4 -10 -3 0 -8 5 -11 10 -3 6 -1 10 4 10 6 0
11 -4 11 -10z m213 -10 c3 -11 1 -18 -4 -14 -5 3 -9 12 -9 20 0 20 7 17 13 -6z
m-993 1 c0 -6 -4 -13 -10 -16 -5 -3 -10 1 -10 9 0 9 5 16 10 16 6 0 10 -4 10
-9z m156 -18 c-10 -10 -19 5 -10 18 6 11 8 11 12 0 2 -7 1 -15 -2 -18z m101
21 c-3 -3 -12 -4 -19 -1 -8 3 -5 6 6 6 11 1 17 -2 13 -5z m-407 -14 c0 -5 -2
-10 -4 -10 -3 0 -8 5 -11 10 -3 6 -1 10 4 10 6 0 11 -4 11 -10z m1107 -6 c-3
-3 -12 -4 -19 -1 -8 3 -5 6 6 6 11 1 17 -2 13 -5z"/>
<path d="M586 634 c-12 -31 18 -59 49 -48 15 6 21 53 8 55 -36 6 -53 4 -57 -7z"/>
<path d="M3326 3515 c4 -8 7 -15 9 -15 2 0 5 7 9 15 3 9 0 15 -9 15 -9 0 -12
-6 -9 -15z"/>
<path d="M3492 3505 c0 -16 2 -22 5 -12 2 9 2 23 0 30 -3 6 -5 -1 -5 -18z"/>
<path d="M3336 3481 c-10 -16 2 -31 19 -24 8 3 15 0 15 -6 0 -6 -9 -11 -19
-11 -27 0 -49 -48 -40 -83 4 -15 3 -41 -1 -58 -9 -29 -7 -31 33 -49 90 -38
124 -34 84 11 -12 14 -33 40 -46 58 -23 33 -23 34 -6 72 10 22 24 44 32 50 21
18 15 29 -15 29 -15 0 -33 5 -39 11 -8 8 -13 8 -17 0z"/>
<path d="M3460 3184 c-31 -23 -36 -33 -31 -74 1 -5 7 -10 15 -10 7 0 19 -7 26
-15 21 -26 31 -6 28 61 -1 35 -2 64 -3 63 0 0 -16 -12 -35 -25z"/>
<path d="M2840 2987 c0 -27 13 -36 26 -16 3 6 -1 18 -10 27 -15 15 -16 14 -16
-11z"/>
<path d="M3020 2865 c-13 -15 -7 -45 9 -45 8 0 20 32 21 53 0 12 -17 8 -30 -8z"/>
<path d="M3112 2760 c-29 -18 -30 -22 -21 -48 5 -16 9 -33 7 -38 -2 -5 2 -10
7 -11 6 -2 10 3 10 10 0 7 16 13 38 15 23 2 37 -1 37 -8 0 -7 -8 -9 -20 -5
-15 5 -22 0 -30 -19 -5 -14 -14 -26 -20 -26 -14 0 -12 -28 3 -33 15 -5 -9 -37
-26 -34 -14 2 -19 -71 -5 -79 5 -3 6 -14 3 -24 -10 -31 27 -43 66 -22 58 31
70 49 63 90 -3 20 -12 47 -20 59 -9 14 -10 24 -3 28 5 4 7 15 4 26 -4 11 -2
19 4 19 6 0 11 8 11 19 0 10 6 24 14 30 15 13 10 60 -8 62 -6 1 -27 3 -47 4
-23 2 -47 -3 -67 -15z m38 -30 c0 -5 -10 -10 -22 -10 -19 0 -20 2 -8 10 19 13
30 13 30 0z m25 -209 c3 -5 1 -12 -5 -16 -5 -3 -10 1 -10 9 0 18 6 21 15 7z"/>
<path d="M3426 2763 c-11 -11 -6 -23 9 -23 8 0 15 4 15 9 0 13 -16 22 -24 14z"/>
<path d="M3300 2719 c0 -6 -9 -8 -20 -4 -14 4 -22 1 -26 -10 -11 -27 11 -40
37 -21 13 9 31 16 41 16 10 0 18 7 18 15 0 9 -9 15 -25 15 -14 0 -25 -5 -25
-11z"/>
<path d="M2097 2673 c-4 -3 -7 -13 -7 -21 0 -12 3 -12 15 -2 8 7 15 16 15 21
0 11 -14 12 -23 2z"/>
<path d="M3040 2381 c-7 -14 -7 -22 1 -26 11 -8 40 25 33 37 -9 14 -23 9 -34
-11z"/>
<path d="M3483 2185 c-8 -26 -8 -38 3 -52 12 -16 13 -12 14 35 0 28 -1 52 -3
52 -2 0 -8 -16 -14 -35z"/>
</g>
</svg>
